<svg width="80" height="59" viewBox="0 0 80 59" fill="none" xmlns="http://www.w3.org/2000/svg">
<rect x="0.5" y="0.5" width="79" height="58" rx="29" fill="#F9FFFF"/>
<rect x="0.5" y="0.5" width="79" height="58" rx="29" stroke="#014D4E"/>
<path d="M18.313 44.5C22.405 44.5 26.145 42.696 30.413 42.696C32.437 42.696 34.593 43.092 36.969 44.324L37.321 44.5V26.592H21.921C18.577 26.592 16.905 24.436 16.905 22.324C16.905 20.168 18.577 18.012 21.921 18.012H37.321V13.7H21.085C14.661 13.7 11.449 17.968 11.449 22.236C11.449 24.26 12.197 26.284 13.605 27.868C10.393 29.54 8.80898 32.664 8.80898 35.744C8.80898 40.144 12.021 44.5 18.313 44.5ZM31.953 30.86V38.296C30.941 38.12 30.061 38.032 29.225 38.032C25.045 38.032 22.581 39.968 19.149 39.968C15.805 39.968 14.133 37.68 14.133 35.436C14.133 33.148 15.805 30.86 19.149 30.86H31.953Z" fill="#014D4E"/>
<path d="M52.1887 38.868L65.0367 13.7H70.4487V44.5H65.0367V23.952L54.9167 44.5C36.3487 44.5 50.7807 17.924 36.6127 17.924H32.6087V13.7H37.9767C53.8607 13.7 44.4887 34.292 52.1887 38.868ZM32.6087 44.5V22.28H37.9767V44.5H32.6087Z" fill="#014D4E"/>
</svg>
