<svg width="158" height="116" viewBox="0 0 158 116" fill="none" xmlns="http://www.w3.org/2000/svg">
<rect x="1.01754" y="1.01754" width="155.228" height="113.965" rx="56.9825" fill="#014D4E"/>
<rect x="1.01754" y="1.01754" width="155.228" height="113.965" rx="56.9825" stroke="#014D4E" stroke-width="1.96491"/>
<path d="M36.0187 87.6313C44.0591 87.6313 51.4079 84.0866 59.7941 84.0866C63.7711 84.0866 68.0075 84.8648 72.6761 87.2855L73.3677 87.6313V52.4437H43.1081C36.5374 52.4437 33.2521 48.2073 33.2521 44.0575C33.2521 39.8211 36.5374 35.5847 43.1081 35.5847H73.3677V27.112H41.4654C28.8428 27.112 22.5315 35.4983 22.5315 43.8845C22.5315 47.8615 24.0013 51.8385 26.7679 54.9509C20.4566 58.2363 17.3442 64.3746 17.3442 70.4266C17.3442 79.0722 23.6555 87.6313 36.0187 87.6313ZM62.8201 60.8299V75.441C60.8316 75.0952 59.1025 74.9223 57.4598 74.9223C49.2465 74.9223 44.4049 78.7264 37.6614 78.7264C31.0907 78.7264 27.8053 74.2306 27.8053 69.8214C27.8053 65.3257 31.0907 60.8299 37.6614 60.8299H62.8201Z" fill="white"/>
<path d="M102.581 76.565L127.827 27.112H138.461V87.6313H127.827V47.2563L107.942 87.6313C71.4571 87.6313 99.8147 35.4118 71.9759 35.4118H64.1084V27.112H74.656C105.867 27.112 87.4515 67.5735 102.581 76.565ZM64.1084 87.6313V43.971H74.656V87.6313H64.1084Z" fill="white"/>
</svg>
