<svg width="88" height="68" viewBox="0 0 88 68" fill="none" xmlns="http://www.w3.org/2000/svg">
<rect x="0.5" y="0.5" width="87" height="67" rx="33.5" fill="white"/>
<rect x="0.5" y="0.5" width="87" height="67" rx="33.5" stroke="#014D4E"/>
<path d="M33.5077 49C29.4157 49 25.6757 47.196 21.4077 47.196C19.3837 47.196 17.2277 47.592 14.8517 48.824L14.4997 49V31.092H29.8997C33.2437 31.092 34.9157 28.936 34.9157 26.824C34.9157 24.668 33.2437 22.512 29.8997 22.512H14.4997V18.2H30.7357C37.1597 18.2 40.3717 22.468 40.3717 26.736C40.3717 28.76 39.6237 30.784 38.2157 32.368C41.4277 34.04 43.0117 37.164 43.0117 40.244C43.0117 44.644 39.7997 49 33.5077 49ZM19.8677 35.36V42.796C20.8797 42.62 21.7597 42.532 22.5957 42.532C26.7757 42.532 29.2397 44.468 32.6717 44.468C36.0157 44.468 37.6877 42.18 37.6877 39.936C37.6877 37.648 36.0157 35.36 32.6717 35.36H19.8677ZM55.2977 43.368L68.1457 18.2H73.5577V49H68.1457V28.452L58.0257 49C39.4577 49 53.8897 22.424 39.7217 22.424H35.7177V18.2H41.0857C56.9697 18.2 47.5977 38.792 55.2977 43.368ZM35.7177 49V26.78H41.0857V49H35.7177Z" fill="#014D4E"/>
</svg>
