<svg width="33" height="33" viewBox="0 0 33 33" fill="none" xmlns="http://www.w3.org/2000/svg">
<g clip-path="url(#clip0_17_44)">
<path d="M16.1368 31.7736C24.7728 31.7736 31.7736 24.7728 31.7736 16.1368C31.7736 7.50083 24.7728 0.5 16.1368 0.5C7.50083 0.5 0.5 7.50083 0.5 16.1368C0.5 24.7728 7.50083 31.7736 16.1368 31.7736Z" fill="#FEF7F5" stroke="#FFE7E2"/>
<path d="M18.4446 12.698L12.682 18.6115C12.465 18.8341 12.4696 19.1906 12.6923 19.4076C12.9149 19.6245 13.2713 19.6199 13.4883 19.3973L19.251 13.4838C19.468 13.2611 19.4634 12.9047 19.2407 12.6877C19.018 12.4707 18.6616 12.4753 18.4446 12.698Z" fill="#DD0000"/>
<path d="M12.6912 13.6003L18.6046 19.363C18.8273 19.5799 19.1837 19.5753 19.4007 19.3527C19.6177 19.13 19.6131 18.7736 19.3904 18.5566L13.477 12.7939C13.2543 12.5769 12.8979 12.5815 12.6809 12.8042C12.4639 13.0269 12.4685 13.3833 12.6912 13.6003Z" fill="#DD0000"/>
</g>
<defs>
<clipPath id="clip0_17_44">
<rect width="33" height="33" fill="white"/>
</clipPath>
</defs>
</svg>
