<svg width="267" height="33" viewBox="0 0 267 33" fill="none" xmlns="http://www.w3.org/2000/svg">
<path d="M19.8835 31.9998C15.7915 31.9998 12.0515 30.1958 7.78349 30.1958C5.75949 30.1958 3.60349 30.5918 1.22749 31.8238L0.875488 31.9998V1.19983H17.1115C23.5355 1.19983 26.7475 5.46783 26.7475 9.73583C26.7475 11.7598 25.9995 13.7838 24.5915 15.3678C27.8035 17.0398 29.3875 20.1638 29.3875 23.2438C29.3875 27.6438 26.1755 31.9998 19.8835 31.9998ZM6.24349 5.51183V14.0918H16.2755C19.6195 14.0918 21.2915 11.9358 21.2915 9.82383C21.2915 7.66783 19.6195 5.51183 16.2755 5.51183H6.24349ZM6.24349 18.3598V25.7958C7.25549 25.6198 8.13549 25.5318 8.97149 25.5318C13.1515 25.5318 15.6155 27.4678 19.0475 27.4678C22.3915 27.4678 24.0635 25.1798 24.0635 22.9358C24.0635 20.6478 22.3915 18.3598 19.0475 18.3598H6.24349ZM37.0534 21.7918V1.19983H42.4214V21.7918H37.0534ZM37.0534 31.9998V27.5998C40.2214 26.1478 42.6414 25.6638 44.6654 25.6638C49.1534 25.6638 51.5294 28.1718 55.8414 28.1718C57.9974 28.1718 60.5934 27.5558 64.1574 25.7078V30.8118C60.7254 32.4398 57.9974 32.9678 55.6214 32.9678C50.4734 32.9678 47.1734 30.3278 42.9054 30.3278C41.1894 30.3278 39.2974 30.7678 37.0534 31.9998ZM104.707 16.5998C104.707 27.5118 95.3352 32.8358 87.3272 32.8358C79.2752 32.8358 69.9032 27.5118 69.9032 16.5998C69.9032 5.68783 79.2752 0.363823 87.3272 0.363823C95.3352 0.363823 104.707 5.68783 104.707 16.5998ZM99.2072 16.5998C99.2072 9.07582 92.7832 5.42382 87.3272 5.42382C81.8272 5.42382 75.4032 9.07582 75.4032 16.5998C75.4032 24.0798 81.8272 27.7758 87.3272 27.7758C92.7832 27.7758 99.2072 24.0798 99.2072 16.5998ZM84.1152 16.8198C84.1152 15.0158 85.3472 13.7838 87.1512 13.7838C88.9552 13.7838 90.1432 15.0158 90.1432 16.8198C90.1432 18.6238 88.9552 19.8558 87.1512 19.8558C85.3472 19.8558 84.1152 18.6238 84.1152 16.8198ZM111.581 16.5998C111.581 5.77582 119.105 0.319824 126.717 0.319824C131.513 0.319824 134.681 1.99183 137.585 1.99183C138.905 1.99183 140.225 1.63983 141.589 0.583823V5.42382C140.225 6.65582 138.729 7.09583 137.189 7.09583C134.197 7.09583 130.809 5.59982 126.893 5.59982C120.689 5.59982 117.301 11.0998 117.301 16.5998C117.301 22.0998 121.217 27.5998 129.005 27.5998C135.693 27.5998 138.465 23.9038 138.465 21.0878C138.465 19.3718 137.409 17.9638 135.517 17.9638C133.097 17.9638 131.821 19.5478 128.785 19.5478C127.597 19.5478 126.189 19.3278 124.341 18.6678V13.8718C125.705 14.5758 126.805 14.8398 127.861 14.8398C130.721 14.8398 132.745 12.7718 136.397 12.7718C141.369 12.7718 143.921 16.3358 143.921 20.4718C143.921 26.1478 139.037 32.8798 128.829 32.8798C120.865 32.8798 111.581 27.4238 111.581 16.5998ZM150.572 31.9998V15.5878C152.684 14.4878 154.576 14.1358 156.336 14.1358C160.56 14.1358 164.08 16.2478 167.688 16.2478C171.076 16.2478 172.792 13.6518 172.792 11.0558C172.792 8.45983 171.076 5.86382 167.688 5.86382H150.572V1.19983H168.128C174.772 1.19983 178.116 6.12783 178.116 11.0558C178.116 15.5438 175.344 20.0318 169.8 20.7798C170.812 24.5638 173.188 27.1158 182.384 27.2918L182.428 31.9998C167.468 31.9998 166.016 25.7958 164.916 20.5158C161.88 19.8558 159.152 18.6238 155.94 18.8878V31.9998H150.572ZM205.934 0.759823L221.862 31.9998H216.142L204.174 8.81183C200.61 15.9398 192.91 21.7478 192.91 31.9998L187.366 32.0438C187.366 18.3158 201.138 11.2318 201.138 0.759823H205.934ZM200.742 21.3958C200.742 19.5918 201.974 18.3598 203.778 18.3598C205.582 18.3598 206.814 19.5918 206.814 21.3958C206.814 23.1998 205.582 24.3878 203.778 24.3878C201.974 24.3878 200.742 23.1998 200.742 21.3958ZM247.922 26.3678L260.77 1.19983H266.182V31.9998H260.77V11.4518L250.65 31.9998C232.082 31.9998 246.514 5.42382 232.346 5.42382H228.342V1.19983H233.71C249.594 1.19983 240.222 21.7918 247.922 26.3678ZM228.342 31.9998V9.77983H233.71V31.9998H228.342Z" fill="white"/>
</svg>
