<svg width="267" height="33" viewBox="0 0 267 33" fill="none" xmlns="http://www.w3.org/2000/svg">
<path d="M19.8836 32C15.7916 32 12.0516 30.196 7.78358 30.196C5.75958 30.196 3.60358 30.592 1.22758 31.824L0.87558 32V1.2H17.1116C23.5356 1.2 26.7476 5.468 26.7476 9.736C26.7476 11.76 25.9996 13.784 24.5916 15.368C27.8036 17.04 29.3876 20.164 29.3876 23.244C29.3876 27.644 26.1756 32 19.8836 32ZM6.24358 5.512V14.092H16.2756C19.6196 14.092 21.2916 11.936 21.2916 9.824C21.2916 7.668 19.6196 5.512 16.2756 5.512H6.24358ZM6.24358 18.36V25.796C7.25558 25.62 8.13558 25.532 8.97158 25.532C13.1516 25.532 15.6156 27.468 19.0476 27.468C22.3916 27.468 24.0636 25.18 24.0636 22.936C24.0636 20.648 22.3916 18.36 19.0476 18.36H6.24358ZM37.0535 21.792V1.2H42.4215V21.792H37.0535ZM37.0535 32V27.6C40.2215 26.148 42.6415 25.664 44.6655 25.664C49.1535 25.664 51.5295 28.172 55.8415 28.172C57.9975 28.172 60.5935 27.556 64.1575 25.708V30.812C60.7255 32.44 57.9975 32.968 55.6215 32.968C50.4735 32.968 47.1735 30.328 42.9055 30.328C41.1895 30.328 39.2975 30.768 37.0535 32ZM104.707 16.6C104.707 27.512 95.3353 32.836 87.3273 32.836C79.2753 32.836 69.9033 27.512 69.9033 16.6C69.9033 5.688 79.2753 0.363998 87.3273 0.363998C95.3353 0.363998 104.707 5.688 104.707 16.6ZM99.2073 16.6C99.2073 9.076 92.7833 5.424 87.3273 5.424C81.8273 5.424 75.4033 9.076 75.4033 16.6C75.4033 24.08 81.8273 27.776 87.3273 27.776C92.7833 27.776 99.2073 24.08 99.2073 16.6ZM84.1153 16.82C84.1153 15.016 85.3473 13.784 87.1513 13.784C88.9553 13.784 90.1433 15.016 90.1433 16.82C90.1433 18.624 88.9553 19.856 87.1513 19.856C85.3473 19.856 84.1153 18.624 84.1153 16.82ZM111.581 16.6C111.581 5.776 119.105 0.319999 126.717 0.319999C131.513 0.319999 134.681 1.992 137.585 1.992C138.905 1.992 140.225 1.64 141.589 0.583998V5.424C140.225 6.656 138.729 7.096 137.189 7.096C134.197 7.096 130.809 5.6 126.893 5.6C120.689 5.6 117.301 11.1 117.301 16.6C117.301 22.1 121.217 27.6 129.005 27.6C135.693 27.6 138.465 23.904 138.465 21.088C138.465 19.372 137.409 17.964 135.517 17.964C133.097 17.964 131.821 19.548 128.785 19.548C127.597 19.548 126.189 19.328 124.341 18.668V13.872C125.705 14.576 126.805 14.84 127.861 14.84C130.721 14.84 132.745 12.772 136.397 12.772C141.369 12.772 143.921 16.336 143.921 20.472C143.921 26.148 139.037 32.88 128.829 32.88C120.865 32.88 111.581 27.424 111.581 16.6ZM150.572 32V15.588C152.684 14.488 154.576 14.136 156.336 14.136C160.56 14.136 164.08 16.248 167.688 16.248C171.076 16.248 172.792 13.652 172.792 11.056C172.792 8.46 171.076 5.864 167.688 5.864H150.572V1.2H168.128C174.772 1.2 178.116 6.128 178.116 11.056C178.116 15.544 175.344 20.032 169.8 20.78C170.812 24.564 173.188 27.116 182.384 27.292L182.428 32C167.468 32 166.016 25.796 164.916 20.516C161.88 19.856 159.152 18.624 155.94 18.888V32H150.572ZM205.934 0.759998L221.862 32H216.142L204.174 8.812C200.61 15.94 192.91 21.748 192.91 32L187.366 32.044C187.366 18.316 201.138 11.232 201.138 0.759998H205.934ZM200.742 21.396C200.742 19.592 201.974 18.36 203.778 18.36C205.582 18.36 206.814 19.592 206.814 21.396C206.814 23.2 205.582 24.388 203.778 24.388C201.974 24.388 200.742 23.2 200.742 21.396ZM247.922 26.368L260.77 1.2H266.182V32H260.77V11.452L250.65 32C232.082 32 246.514 5.424 232.346 5.424H228.342V1.2H233.71C249.594 1.2 240.222 21.792 247.922 26.368ZM228.342 32V9.78H233.71V32H228.342Z" fill="#014D4E"/>
</svg>
