<svg width="174" height="174" viewBox="0 0 174 174" fill="none" xmlns="http://www.w3.org/2000/svg">
<g clip-path="url(#clip0_17_101)">
<path d="M143.896 32.1127C144.286 31.7639 144.597 31.3358 144.809 30.8569C145.02 30.378 145.127 29.8594 145.122 29.3359C145.117 28.8124 145 28.2961 144.779 27.8215C144.558 27.3469 144.238 26.925 143.841 26.584C143.422 26.2251 143.007 25.868 142.595 25.5129C139.451 22.8095 136.2 20.0104 132.8 17.6227C106.823 -0.660247 79.8314 -0.763106 52.5801 8.93306C27.9066 17.7057 12.0617 35.2565 5.47892 61.0884C-1.86432 89.9492 4.56601 115.41 24.6046 136.773C25.1259 137.325 25.658 137.877 26.1893 138.404C36.9537 149.169 50.3612 155.815 60.9845 160.439C65.5443 162.431 88.9402 164.849 95.2705 163.906C132.89 158.288 157.646 137.07 166.269 101.573C167.915 94.6196 168.735 87.4964 168.711 80.351C168.674 72.8468 167.412 65.399 164.975 58.3014C164.797 57.7705 164.505 57.2853 164.118 56.8807C163.731 56.4761 163.26 56.162 162.737 55.9608C162.215 55.7597 161.654 55.6766 161.096 55.7173C160.538 55.7581 159.995 55.9218 159.508 56.1967L159.406 56.2549C158.631 56.6986 158.036 57.4007 157.727 58.2383C157.417 59.0759 157.412 59.9956 157.712 60.8366C159.912 66.9373 161.034 73.3742 161.027 79.8594C160.951 87.6396 159.898 95.3794 157.892 102.897C151.948 124.5 137.738 140.245 114.45 151.015C90.7739 162.35 56.8213 150.89 47.7877 144.926C37.8029 138.1 29.0661 129.608 21.9594 119.821C10.814 104.04 8.31352 81.3589 14.3026 60.6231C17.1053 51.0491 22.0034 42.2187 28.6419 34.7724C35.2804 27.3261 43.4928 21.4505 52.6836 17.5716C76.5939 7.63493 100.585 5.88211 123.985 20.7637C127.122 22.7612 135.122 29.0426 139.165 32.2503C139.843 32.7884 140.69 33.0693 141.555 33.0434C142.421 33.0174 143.249 32.6862 143.894 32.1084L143.896 32.1127Z" fill="#014D4E" stroke="#0B4B4C" stroke-width="5.27"/>
<path d="M76.3285 106.013C77.931 104.49 78.8113 103.719 79.6171 102.877C105.453 75.8857 133.747 51.5853 162.208 27.4729C163.284 26.5621 164.385 25.4002 165.658 25.0739C167.193 24.6817 169.696 25.1328 170.382 25.9663C170.833 26.5823 171.118 27.3037 171.209 28.0614C171.301 28.8191 171.196 29.5877 170.906 30.2934C170.237 32.0476 168.607 33.55 167.129 34.8631C158.307 42.7021 149.238 50.271 140.572 58.2718C122.456 75.0026 104.456 91.8578 86.5702 108.837C78.7332 116.261 75.7171 116.562 68.5057 108.629C63.7587 103.405 49.4326 85.7975 45.0453 80.2497C44.4254 79.3874 43.8733 78.4783 43.3939 77.5307C42.4043 75.7758 41.7574 73.8421 43.7244 72.4816C45.9156 70.9664 47.4705 72.5475 48.7694 74.1939C50.0838 75.8609 51.2046 77.6918 52.6119 79.2715C56.9809 84.1739 71.6078 100.842 76.3285 106.013Z" fill="#014D4E" stroke="#0B4B4C" stroke-width="5.27"/>
</g>
<defs>
<clipPath id="clip0_17_101">
<rect width="173.4" height="173.4" fill="white"/>
</clipPath>
</defs>
</svg>
